<mxfile host="app.diagrams.net" modified="2023-02-06T07:23:46.879Z" agent="5.0 (Macintosh; Intel Mac OS X 10_15_7) AppleWebKit/537.36 (KHTML, like Gecko) Chrome/109.0.0.0 Safari/537.36" etag="Z8x1UskocZBuc2E94t6Y" version="20.8.16" type="github">
  <diagram id="prtHgNgQTEPvFCAcTncT" name="Page-1">
    <mxGraphModel dx="1498" dy="556" grid="0" gridSize="10" guides="1" tooltips="1" connect="1" arrows="1" fold="1" page="0" pageScale="1" pageWidth="827" pageHeight="1169" math="0" shadow="0">
      <root>
        <mxCell id="0" />
        <mxCell id="1" parent="0" />
        <mxCell id="AaNuVNxDxawsNwJPwwFY-3" value="" style="whiteSpace=wrap;html=1;aspect=fixed;fillColor=#E1D5E7;" vertex="1" parent="1">
          <mxGeometry x="93" y="116" width="60" height="60" as="geometry" />
        </mxCell>
        <mxCell id="AaNuVNxDxawsNwJPwwFY-7" value="" style="whiteSpace=wrap;html=1;aspect=fixed;" vertex="1" parent="1">
          <mxGeometry x="740" y="90" width="60" height="60" as="geometry" />
        </mxCell>
        <mxCell id="AaNuVNxDxawsNwJPwwFY-9" value="" style="endArrow=classic;html=1;rounded=0;entryX=0.5;entryY=1;entryDx=0;entryDy=0;" edge="1" parent="1" target="AaNuVNxDxawsNwJPwwFY-3">
          <mxGeometry width="50" height="50" relative="1" as="geometry">
            <mxPoint x="122.5" y="236" as="sourcePoint" />
            <mxPoint x="122.5" y="186" as="targetPoint" />
          </mxGeometry>
        </mxCell>
        <mxCell id="AaNuVNxDxawsNwJPwwFY-10" value="" style="whiteSpace=wrap;html=1;aspect=fixed;fillColor=#E1D5E7;" vertex="1" parent="1">
          <mxGeometry x="93" y="236" width="60" height="60" as="geometry" />
        </mxCell>
        <mxCell id="AaNuVNxDxawsNwJPwwFY-11" value="" style="endArrow=classic;html=1;rounded=0;entryX=0.5;entryY=1;entryDx=0;entryDy=0;" edge="1" parent="1" target="AaNuVNxDxawsNwJPwwFY-10">
          <mxGeometry width="50" height="50" relative="1" as="geometry">
            <mxPoint x="122.5" y="356" as="sourcePoint" />
            <mxPoint x="122.5" y="306" as="targetPoint" />
          </mxGeometry>
        </mxCell>
        <mxCell id="AaNuVNxDxawsNwJPwwFY-12" value="" style="whiteSpace=wrap;html=1;aspect=fixed;fillColor=#E1D5E7;" vertex="1" parent="1">
          <mxGeometry x="93" y="356" width="60" height="60" as="geometry" />
        </mxCell>
        <mxCell id="AaNuVNxDxawsNwJPwwFY-13" value="" style="endArrow=classic;html=1;rounded=0;entryX=0.5;entryY=1;entryDx=0;entryDy=0;" edge="1" parent="1" target="AaNuVNxDxawsNwJPwwFY-12">
          <mxGeometry width="50" height="50" relative="1" as="geometry">
            <mxPoint x="122.5" y="476" as="sourcePoint" />
            <mxPoint x="122.5" y="426" as="targetPoint" />
          </mxGeometry>
        </mxCell>
        <mxCell id="AaNuVNxDxawsNwJPwwFY-14" value="" style="whiteSpace=wrap;html=1;aspect=fixed;fillColor=#E1D5E7;" vertex="1" parent="1">
          <mxGeometry x="93" y="476" width="60" height="60" as="geometry" />
        </mxCell>
        <mxCell id="AaNuVNxDxawsNwJPwwFY-15" value="" style="shape=flexArrow;endArrow=classic;html=1;rounded=0;fillColor=#FFCCCC;" edge="1" parent="1">
          <mxGeometry width="50" height="50" relative="1" as="geometry">
            <mxPoint x="-37" y="166" as="sourcePoint" />
            <mxPoint x="63" y="166" as="targetPoint" />
          </mxGeometry>
        </mxCell>
        <mxCell id="AaNuVNxDxawsNwJPwwFY-16" value="&lt;font style=&quot;font-size: 24px;&quot;&gt;staking&lt;/font&gt;" style="text;strokeColor=none;align=center;fillColor=none;html=1;verticalAlign=middle;whiteSpace=wrap;rounded=0;" vertex="1" parent="1">
          <mxGeometry x="-27" y="126" width="60" height="30" as="geometry" />
        </mxCell>
        <mxCell id="AaNuVNxDxawsNwJPwwFY-17" value="" style="shape=flexArrow;endArrow=classic;html=1;rounded=0;fillColor=#FFCCCC;" edge="1" parent="1">
          <mxGeometry width="50" height="50" relative="1" as="geometry">
            <mxPoint x="-37" y="376" as="sourcePoint" />
            <mxPoint x="63" y="376" as="targetPoint" />
          </mxGeometry>
        </mxCell>
        <mxCell id="AaNuVNxDxawsNwJPwwFY-18" value="&lt;font style=&quot;font-size: 24px;&quot;&gt;delegating&lt;/font&gt;" style="text;strokeColor=none;align=center;fillColor=none;html=1;verticalAlign=middle;whiteSpace=wrap;rounded=0;" vertex="1" parent="1">
          <mxGeometry x="-67" y="336" width="100" height="30" as="geometry" />
        </mxCell>
        <mxCell id="AaNuVNxDxawsNwJPwwFY-19" value="" style="whiteSpace=wrap;html=1;aspect=fixed;fillColor=#FFFFCC;" vertex="1" parent="1">
          <mxGeometry x="351" y="116" width="60" height="60" as="geometry" />
        </mxCell>
        <mxCell id="AaNuVNxDxawsNwJPwwFY-20" value="" style="endArrow=classic;html=1;rounded=0;entryX=0.5;entryY=1;entryDx=0;entryDy=0;" edge="1" parent="1" target="AaNuVNxDxawsNwJPwwFY-19">
          <mxGeometry width="50" height="50" relative="1" as="geometry">
            <mxPoint x="380.5" y="236" as="sourcePoint" />
            <mxPoint x="380.5" y="186" as="targetPoint" />
          </mxGeometry>
        </mxCell>
        <mxCell id="AaNuVNxDxawsNwJPwwFY-21" value="" style="whiteSpace=wrap;html=1;aspect=fixed;fillColor=#FFFFCC;" vertex="1" parent="1">
          <mxGeometry x="351" y="236" width="60" height="60" as="geometry" />
        </mxCell>
        <mxCell id="AaNuVNxDxawsNwJPwwFY-22" value="" style="endArrow=classic;html=1;rounded=0;entryX=0.5;entryY=1;entryDx=0;entryDy=0;" edge="1" parent="1" target="AaNuVNxDxawsNwJPwwFY-21">
          <mxGeometry width="50" height="50" relative="1" as="geometry">
            <mxPoint x="380.5" y="356" as="sourcePoint" />
            <mxPoint x="380.5" y="306" as="targetPoint" />
          </mxGeometry>
        </mxCell>
        <mxCell id="AaNuVNxDxawsNwJPwwFY-23" value="" style="whiteSpace=wrap;html=1;aspect=fixed;fillColor=#FFFFCC;" vertex="1" parent="1">
          <mxGeometry x="351" y="356" width="60" height="60" as="geometry" />
        </mxCell>
        <mxCell id="AaNuVNxDxawsNwJPwwFY-24" value="" style="endArrow=classic;html=1;rounded=0;entryX=0.5;entryY=1;entryDx=0;entryDy=0;" edge="1" parent="1" target="AaNuVNxDxawsNwJPwwFY-23">
          <mxGeometry width="50" height="50" relative="1" as="geometry">
            <mxPoint x="380.5" y="476" as="sourcePoint" />
            <mxPoint x="380.5" y="426" as="targetPoint" />
          </mxGeometry>
        </mxCell>
        <mxCell id="AaNuVNxDxawsNwJPwwFY-25" value="" style="whiteSpace=wrap;html=1;aspect=fixed;fillColor=#FFFFCC;" vertex="1" parent="1">
          <mxGeometry x="351" y="476" width="60" height="60" as="geometry" />
        </mxCell>
        <mxCell id="AaNuVNxDxawsNwJPwwFY-28" value="" style="endArrow=classic;html=1;rounded=0;fontSize=24;" edge="1" parent="1">
          <mxGeometry width="50" height="50" relative="1" as="geometry">
            <mxPoint x="343" y="516" as="sourcePoint" />
            <mxPoint x="163" y="516" as="targetPoint" />
          </mxGeometry>
        </mxCell>
        <mxCell id="AaNuVNxDxawsNwJPwwFY-29" value="&lt;b&gt;&lt;font style=&quot;font-size: 36px;&quot;&gt;CKB&lt;/font&gt;&lt;/b&gt;" style="text;strokeColor=none;align=center;fillColor=none;html=1;verticalAlign=middle;whiteSpace=wrap;rounded=0;fontSize=24;" vertex="1" parent="1">
          <mxGeometry x="-7" y="506" width="60" height="30" as="geometry" />
        </mxCell>
        <mxCell id="AaNuVNxDxawsNwJPwwFY-30" value="&lt;b&gt;&lt;font style=&quot;font-size: 36px;&quot;&gt;Axon&lt;/font&gt;&lt;/b&gt;" style="text;strokeColor=none;align=center;fillColor=none;html=1;verticalAlign=middle;whiteSpace=wrap;rounded=0;fontSize=24;" vertex="1" parent="1">
          <mxGeometry x="455" y="506" width="60" height="30" as="geometry" />
        </mxCell>
        <mxCell id="AaNuVNxDxawsNwJPwwFY-31" value="&lt;font style=&quot;font-size: 24px;&quot;&gt;update metadata&lt;/font&gt;" style="text;strokeColor=none;align=center;fillColor=none;html=1;verticalAlign=middle;whiteSpace=wrap;rounded=0;fontSize=36;" vertex="1" parent="1">
          <mxGeometry x="113" y="356" width="280" height="30" as="geometry" />
        </mxCell>
        <mxCell id="AaNuVNxDxawsNwJPwwFY-32" value="&lt;font style=&quot;font-size: 24px;&quot;&gt;update metadata&lt;/font&gt;" style="text;strokeColor=none;align=center;fillColor=none;html=1;verticalAlign=middle;whiteSpace=wrap;rounded=0;fontSize=36;" vertex="1" parent="1">
          <mxGeometry x="113" y="196" width="280" height="30" as="geometry" />
        </mxCell>
        <mxCell id="AaNuVNxDxawsNwJPwwFY-33" value="&lt;font style=&quot;font-size: 24px;&quot;&gt;checkpoint&lt;/font&gt;" style="text;strokeColor=none;align=center;fillColor=none;html=1;verticalAlign=middle;whiteSpace=wrap;rounded=0;fontSize=36;" vertex="1" parent="1">
          <mxGeometry x="113" y="476" width="280" height="30" as="geometry" />
        </mxCell>
        <mxCell id="AaNuVNxDxawsNwJPwwFY-34" value="" style="endArrow=classic;html=1;rounded=0;fontSize=24;fillColor=#FFCCCC;" edge="1" parent="1">
          <mxGeometry width="50" height="50" relative="1" as="geometry">
            <mxPoint x="160" y="240" as="sourcePoint" />
            <mxPoint x="344" y="240" as="targetPoint" />
          </mxGeometry>
        </mxCell>
        <mxCell id="AaNuVNxDxawsNwJPwwFY-35" value="" style="endArrow=classic;html=1;rounded=0;fontSize=24;fillColor=#FFCCCC;" edge="1" parent="1">
          <mxGeometry width="50" height="50" relative="1" as="geometry">
            <mxPoint x="161" y="395" as="sourcePoint" />
            <mxPoint x="345" y="395" as="targetPoint" />
          </mxGeometry>
        </mxCell>
      </root>
    </mxGraphModel>
  </diagram>
</mxfile>
